<svg xmlns="http://www.w3.org/2000/svg" width="26" height="26" viewBox="0 0 26 26"><path d="M13 .188C5.924.188.187 5.923.187 13S5.925 25.813 13 25.813c7.076 0 12.813-5.737 12.813-12.813C25.813 5.924 20.075.187 13 .187zm0 2.75c5.547 0 10.063 4.515 10.063 10.062S18.547 23.063 13 23.063C7.452 23.063 2.937 18.547 2.937 13 2.938 7.453 7.452 2.937 13 2.937zm0 1.156A8.901 8.901 0 0 0 4.094 13 8.901 8.901 0 0 0 13 21.906 8.901 8.901 0 0 0 21.906 13 8.901 8.901 0 0 0 13 4.094zM12.125 6v.031l-.219 3.875c-.39.138-.754.331-1.062.594L7.375 8.781c1.123-1.497 2.802-2.54 4.75-2.781zm1.781 0a7.044 7.044 0 0 1 4.688 2.719l-3.469 1.75a3.26 3.26 0 0 0-1-.563l-.219-3.875V6zm5.563 4.25c.005-.004.025.004.031 0 .358.844.563 1.777.563 2.75 0 .973-.205 1.906-.563 2.75-.006-.004-.026.004-.031 0l-3.219-2.125c.037-.199.063-.416.063-.625 0-.209-.025-.426-.063-.625l3.219-2.125zm-13 .063c.005.004.025-.004.031 0l3.25 2.093a3.609 3.609 0 0 0-.063.594c0 .199.029.405.063.594L6.5 15.688c-.006.003-.026-.005-.031 0a7.053 7.053 0 0 1 0-5.376zM13 11.437c.867 0 1.563.695 1.563 1.563s-.696 1.563-1.563 1.563A1.555 1.555 0 0 1 11.437 13c0-.868.694-1.563 1.563-1.563zM10.844 15.5a3.29 3.29 0 0 0 1.062.594l.219 3.875V20c-1.948-.242-3.627-1.284-4.75-2.781l3.469-1.719zm4.281.031l3.469 1.75A7.044 7.044 0 0 1 13.906 20v-.031l.219-3.875a3.26 3.26 0 0 0 1-.563z"/></svg>