<svg xmlns="http://www.w3.org/2000/svg" viewBox="0 0 32 32"><path style="text-indent:0;text-align:start;line-height:normal;text-transform:none;block-progression:tb;-inkscape-font-specification:Bitstream Vera Sans" d="M16 4C9.384 4 4 9.384 4 16s5.384 12 12 12 12-5.384 12-12S22.616 4 16 4zm0 2c5.535 0 10 4.465 10 10s-4.465 10-10 10S6 21.535 6 16 10.465 6 16 6zm-.094 1.969a1 1 0 0 0-.125.031 1 1 0 0 0-.031 0c-2.714.085-5.086 1.54-6.469 3.688a1 1 0 0 0-.344.593A7.931 7.931 0 0 0 8 16c0 1.377.352 2.68.969 3.813a1.008 1.008 0 0 0 .031.03c.004.009-.004.024 0 .032a1.008 1.008 0 0 0 .188.313A8.012 8.012 0 0 0 15.78 24a1 1 0 0 0 .031 0c.064.001.125 0 .188 0 .074 0 .145.002.219 0a1 1 0 0 0 .031 0c2.754-.086 5.158-1.582 6.531-3.781a1.008 1.008 0 0 0 .25-.438A7.942 7.942 0 0 0 24 16a7.935 7.935 0 0 0-.813-3.531 1 1 0 0 0-.5-.875 1 1 0 0 0-.03 0 7.977 7.977 0 0 0-6.25-3.563A1 1 0 0 0 16.343 8c-.042-.002-.083.001-.125 0a1 1 0 0 0-.313-.031zM15 10.094V11a1 1 0 1 0 2 0v-.906a5.94 5.94 0 0 1 3.625 2.094l-.781.437a1.008 1.008 0 0 0 1 1.75l.781-.438c.235.644.375 1.336.375 2.063 0 .727-.14 1.419-.375 2.063l-.781-.438a1 1 0 0 0-.688-.125 1 1 0 0 0-.312 1.875l.781.438A5.94 5.94 0 0 1 17 21.905V21a1 1 0 0 0-1.094-1.031 1 1 0 0 0-.125.031A1 1 0 0 0 15 21v.906a5.94 5.94 0 0 1-3.625-2.093l.781-.438a1 1 0 0 0-.562-1.906 1 1 0 0 0-.094.031 1 1 0 0 0-.344.125l-.781.438A6.001 6.001 0 0 1 10 16c0-.727.14-1.419.375-2.063l.781.438a1.008 1.008 0 0 0 1-1.75l-.781-.438A5.94 5.94 0 0 1 15 10.095zM16 13c-1.645 0-3 1.355-3 3s1.355 3 3 3 3-1.355 3-3-1.355-3-3-3zm0 2c.564 0 1 .436 1 1 0 .564-.436 1-1 1-.564 0-1-.436-1-1 0-.564.436-1 1-1z"/></svg>