<svg xmlns="http://www.w3.org/2000/svg" xmlns:xlink="http://www.w3.org/1999/xlink" width="609.911" height="393.179"><defs><linearGradient id="a"><stop offset="0" stop-color="#646464"/><stop offset="1" stop-color="#b3b3b3"/></linearGradient><filter color-interpolation-filters="sRGB" id="b"><feGaussianBlur stdDeviation="3.629"/></filter><linearGradient x1="506.086" y1="563.745" x2="350.523" y2="563.745" id="q" xlink:href="#a" gradientUnits="userSpaceOnUse" gradientTransform="translate(0 359.821)"/></defs><g transform="translate(-76.377 -587.502)"><rect width="593.26" height="374.479" rx="12.24" ry="12.24" x="84.702" y="596.852" transform="translate(3.573 7.347) scale(.99063)" fill="none" stroke="#000" stroke-width="5" filter="url(#b)"/><rect width="587.556" height="370.878" rx="12.122" ry="12.122" x="87.555" y="598.653" fill="#a9d1ff" stroke="#747f8d" stroke-width=".997"/><rect width="521.143" height="247.605" rx="11.881" ry="11.881" x="120.761" y="622.575" fill="#eee982"/><g transform="translate(-2.853 585.548)"><path fill="#e4e3da" d="M320.5 151.219H448v42.5H320.5z"/><path d="M389.421 219.906a127.143 127.143 0 0 1-.654-82.904" id="c" fill="none" stroke="#5d4b4b" stroke-width=".9"/><use transform="matrix(.96081 0 0 .96081 19.957 6.956)" id="d" width="744.094" height="1052.362" xlink:href="#c" stroke="#5d4b4b"/><use transform="matrix(.95339 0 0 .95339 23.739 8.274)" id="e" width="744.094" height="1052.362" xlink:href="#d" stroke="#5d4b4b"/><use transform="matrix(.9511 0 0 .9511 24.9 8.678)" id="f" width="744.094" height="1052.362" xlink:href="#e" stroke="#5d4b4b"/><use transform="matrix(.9486 0 0 .9486 26.18 9.124)" id="g" width="744.094" height="1052.362" xlink:href="#f" stroke="#5d4b4b"/><use transform="matrix(.95258 0 0 .95258 24.148 8.417)" id="h" width="744.094" height="1052.362" xlink:href="#g" stroke="#5d4b4b"/><use transform="matrix(.95022 0 0 .95022 25.35 8.835)" id="i" width="744.094" height="1052.362" xlink:href="#h" stroke="#5d4b4b"/><use transform="matrix(.94013 0 0 .94013 30.49 10.627)" id="j" width="744.094" height="1052.362" xlink:href="#i" stroke="#5d4b4b"/><use transform="translate(32.43 11.303) scale(.93632)" id="k" width="744.094" height="1052.362" xlink:href="#j" stroke="#5d4b4b"/><use transform="translate(34.636 12.072) scale(.93199)" id="l" width="744.094" height="1052.362" xlink:href="#k" stroke="#5d4b4b"/><use transform="matrix(.93615 0 0 .93615 32.518 11.334)" id="m" width="744.094" height="1052.362" xlink:href="#l" stroke="#5d4b4b"/><use transform="matrix(.9123 0 0 .9123 44.661 15.566)" width="744.094" height="1052.362" xlink:href="#m" stroke="#5d4b4b"/><path d="M253.313 136.719c-24.793 0-42.225 19.957-42.225 44.75 0 24.792 17.432 44.75 42.224 44.75H515.25c24.792 0 43.235-19.958 43.235-44.75 0-24.793-18.443-44.75-43.235-44.75H253.312zm67.187 14.5H448v42.5H320.5v-42.5z" fill="#a6a6a6"/><g transform="translate(.107 -100)"><g id="n"><path d="M264.643 270.934a20.357 20.357 0 1 1-40.714 0 20.357 20.357 0 1 1 40.714 0z" transform="rotate(134.609 520.965 400.464) scale(1.81579)" fill="#5d5d5d"/><path d="M264.643 270.934a20.357 20.357 0 1 1-40.714 0 20.357 20.357 0 1 1 40.714 0z" transform="translate(75.893 -199.911) scale(1.7807)" fill="#727272"/><path d="M264.643 270.934a20.357 20.357 0 1 1-40.714 0 20.357 20.357 0 1 1 40.714 0z" transform="matrix(1.39474 0 0 1.39474 170.179 -95.34)" fill="#fff"/><path d="M353.571 333.79c-4.135 4.366-9.462-5.798-14.744-2.925-5.282 2.874.357 12.868-5.554 13.969-5.911 1.1-4.247-10.254-10.21-11.033-5.961-.78-7.273 10.62-12.703 8.036-5.429-2.584 2.591-10.792-1.774-14.927s-12.127 4.316-15-.965c-2.874-5.282 8.438-7.208 7.338-13.12-1.101-5.91-12.349-3.636-11.569-9.598.78-5.962 11.064-.87 13.648-6.3 2.584-5.429-7.853-10.2-3.717-14.565 4.135-4.365 9.463 5.799 14.744 2.925 5.282-2.873-.357-12.867 5.554-13.968 5.911-1.1 4.247 10.253 10.21 11.033 5.961.78 7.273-10.62 12.703-8.036 5.429 2.584-2.591 10.792 1.774 14.927s12.127-4.317 15 .965c2.874 5.282-8.438 7.208-7.338 13.12 1.101 5.91 12.349 3.636 11.57 9.598-.78 5.962-11.065.87-13.649 6.3-2.584 5.429 7.853 10.2 3.717 14.565z" transform="translate(288.82 72.953) scale(.68031)" fill="#808183"/></g><use transform="rotate(60 384.407 63.282)" width="744.094" height="1052.362" xlink:href="#n"/></g><path d="M320.496 152.72H446.5v41.006" fill="none" stroke="#d7d7d3" stroke-width="3"/><path fill="#e4e3da" fill-opacity=".533" d="M320.5 151.219H448v42.5H320.5z"/></g><g id="o"><path d="M264.66 530.87a12.88 12.88 0 1 1-25.759 0 12.88 12.88 0 1 1 25.759 0z" transform="matrix(1.05546 0 0 1.05546 -22.9 387.82)" fill="#343c45"/><path d="M264.66 530.87a12.88 12.88 0 1 1-25.759 0 12.88 12.88 0 1 1 25.759 0z" transform="translate(-9.403 417.939)" fill="#808183"/></g><use transform="matrix(.80296 0 0 .80296 108.387 177.896)" id="p" width="744.094" height="1052.362" xlink:href="#o"/><use transform="translate(284)" width="744.094" height="1052.362" xlink:href="#o"/><use transform="translate(166)" width="744.094" height="1052.362" xlink:href="#p"/><path d="M179.302 969.024h5.05l17.931-86.116h365.928l19.95 86.62 1.006-.269-21.209-91.654H196.475l-17.173 91.419z" fill="url(#q)"/></g></svg>