<svg xmlns="http://www.w3.org/2000/svg" xmlns:xlink="http://www.w3.org/1999/xlink" width="609.911" height="393.179">
<defs>
  <linearGradient id="a"><stop offset="0" stop-color="#646464"/><stop offset="1" stop-color="#b3b3b3"/></linearGradient>
  <filter color-interpolation-filters="sRGB" id="b"><feGaussianBlur stdDeviation="3.629"/></filter>
  <linearGradient x1="506.086" y1="563.745" x2="350.523" y2="563.745" id="q" xlink:href="#a" gradientUnits="userSpaceOnUse" gradientTransform="translate(0 359.821)"/>
</defs>
  <g transform="translate(-76.377 -587.502)">
    <rect width="587.556" height="370.878" rx="12.122" ry="12.122" x="87.555" y="598.653" fill="#a9d1ff" stroke="#747f8d" stroke-width=".997"/>
    <g id="o">
      <path d="M264.66 530.87a12.88 12.88 0 1 1-25.759 0 12.88 12.88 0 1 1 25.759 0z" transform="matrix(1.05546 0 0 1.05546 -22.9 387.82)" fill="#343c45"/>
      <path d="M264.66 530.87a12.88 12.88 0 1 1-25.759 0 12.88 12.88 0 1 1 25.759 0z" transform="translate(-9.403 417.939)" fill="#808183"/>
    </g>
    <use transform="matrix(.80296 0 0 .80296 108.387 177.896)" id="p" width="744.094" height="1052.362" xlink:href="#o"/>
    <use transform="translate(284)" width="744.094" height="1052.362" xlink:href="#o"/>
    <use transform="translate(166)" width="744.094" height="1052.362" xlink:href="#p"/>
    <path d="M179.302 969.024h5.05l17.931-86.116h365.928l19.95 86.62 1.006-.269-21.209-91.654H196.475l-17.173 91.419z" fill="url(#q)"/>
  </g>
</svg>
